<?xml version="1.0" encoding="utf-8"?>
<!-- Generator: Adobe Illustrator 16.0.0, SVG Export Plug-In . SVG Version: 6.00 Build 0)  -->
<!DOCTYPE svg PUBLIC "-//W3C//DTD SVG 1.1//EN" "http://www.w3.org/Graphics/SVG/1.1/DTD/svg11.dtd">
<svg version="1.1" id="Layer_1" xmlns="http://www.w3.org/2000/svg" xmlns:xlink="http://www.w3.org/1999/xlink" x="0px" y="0px"
	 width="200px" height="300px" viewBox="0 0 200 300" enable-background="new 0 0 200 300" xml:space="preserve">
<path fill="none" stroke="#F1F1F1" stroke-width="1.8417" stroke-linecap="round" stroke-linejoin="round" stroke-miterlimit="10" stroke-dasharray="0.0862,3.0149" d="
	M15.688,109.586"/>
<path fill="none" stroke="#F1F1F1" stroke-width="1.8417" stroke-linecap="round" stroke-linejoin="round" stroke-miterlimit="10" stroke-dasharray="0.0862,3.0149" d="
	M62.631,55.396"/>
<path fill="#0078C0" d="M62.194,178.637c-0.364,0-0.715-0.068-0.904-0.188c-0.279-0.176-0.1-0.396,0.399-0.496
	c41.391-8.123,60.694-35.589,60.886-35.865c0.134-0.196,0.693-0.315,1.249-0.269c0.555,0.047,0.898,0.243,0.763,0.44
	c-0.047,0.068-4.919,7.073-14.905,15c-9.246,7.338-24.901,16.996-46.984,21.33C62.539,178.621,62.365,178.637,62.194,178.637z"/>
<path fill="#0078C0" d="M169.525,166.055c-12.371-2.484-21.616-11.518-27.366-19.01c-6.799-8.857-10.312-17.531-10.347-17.619
	c-0.092-0.23,0.021-0.492,0.25-0.584c0.23-0.093,0.493,0.02,0.586,0.25c0.034,0.086,3.51,8.663,10.238,17.423
	c5.613,7.308,14.6,16.108,26.57,18.608c1.216,0.254-0.354,0.385,0.922,0.502L169.525,166.055z"/>
<path fill="#0078C0" d="M143.096,129.596c-1.128,0-1.764-0.023-1.791-0.023c-0.248-0.011-0.441-0.219-0.432-0.468
	c0.011-0.248,0.228-0.442,0.468-0.433c0.104,0.005,10.611,0.383,23.122-2.047c11.509-2.234,27.119-7.369,36.131-19.144
	c0.151-0.198,0.434-0.235,0.632-0.084c0.196,0.151,0.234,0.435,0.083,0.631c-9.188,12.004-25.024,17.222-36.693,19.484
	C155.05,129.368,146.643,129.596,143.096,129.596z"/>
<path fill="#0078C0" d="M71.389,127.649c-4.732,0-10.065-0.71-15.706-2.707c-0.234-0.084-0.357-0.34-0.274-0.575
	c0.083-0.233,0.339-0.356,0.575-0.273c11.106,3.934,21.002,2.777,27.346,1.114c6.889-1.806,11.2-4.581,11.243-4.609
	c0.208-0.135,0.487-0.076,0.622,0.132c0.137,0.208,0.077,0.487-0.131,0.622c-0.179,0.117-4.453,2.872-11.471,4.717
	C80.339,126.925,76.169,127.649,71.389,127.649z"/>
<path fill="#0078C0" d="M51.721,173.134c-0.038,0-0.075-0.004-0.114-0.015c-6.658-1.74-13.066-8.133-19.047-19.003
	c-4.428-8.048-6.957-15.694-6.982-15.771c-0.077-0.236,0.051-0.49,0.287-0.568c0.237-0.078,0.491,0.051,0.568,0.287
	c0.099,0.301,10.063,30.174,25.402,34.184c0.24,0.064,0.385,0.309,0.321,0.55C52.104,173,51.921,173.134,51.721,173.134z"/>
<path fill="#0078C0" d="M62.649,178.967c-0.489,0-0.755-0.008-0.775-0.009c-0.237-0.011-0.423-0.21-0.413-0.446
	c0.01-0.234,0.209-0.42,0.451-0.408c0.156,0.008,16.201,0.584,35.132-8.025c17.462-7.94,41.031-25.557,54.14-64.366
	c0.076-0.225,0.321-0.346,0.547-0.271c0.228,0.075,0.349,0.316,0.273,0.54c-5.833,17.268-14.197,31.851-24.859,43.343
	c-8.535,9.199-18.554,16.449-29.778,21.547C80.624,178.477,66.103,178.967,62.649,178.967z"/>
<path fill="#0078C0" d="M189.445,107.148c-10.478,0-20.677-2.509-30.391-7.481c-9.097-4.657-17.787-11.474-25.831-20.261
	c-13.683-14.945-20.851-30.644-20.923-30.8c-0.103-0.227-0.001-0.493,0.226-0.596c0.227-0.102,0.493-0.001,0.596,0.225
	c0.069,0.156,7.19,15.742,20.781,30.581c12.514,13.662,33.237,29.473,60.9,27.211c0.246-0.02,0.465,0.165,0.485,0.412
	c0.02,0.248-0.164,0.465-0.412,0.485C193.06,107.074,191.247,107.148,189.445,107.148z"/>
<path fill="#0078C0" d="M114.474,119.093c1.69-10.341,5.811-20.001,12.287-28.786c6.063-8.226,14.193-15.702,24.163-22.223
	c16.957-11.092,33.606-15.633,33.772-15.679c0.24-0.064,0.486,0.079,0.552,0.319c0.063,0.24-0.078,0.487-0.318,0.551
	c-0.165,0.044-16.696,4.556-33.534,15.576c-15.503,10.145-34.449,28.045-36.681,55.711c-0.021,0.246-0.237,0.433-0.484,0.412
	c-0.248-0.02-0.434-0.236-0.413-0.484C113.964,122.671,114.183,120.871,114.474,119.093z"/>
<path fill="#0078C0" d="M71.242,178.98c-5.864,0-9.335-0.317-9.423-0.325c-0.247-0.024-0.429-0.243-0.405-0.491
	s0.241-0.431,0.492-0.404c0.222,0.02,22.647,2.063,50.524-4.416c25.703-5.976,61.435-20.63,85.696-56.512
	c0.14-0.206,0.419-0.26,0.624-0.12c0.206,0.139,0.261,0.418,0.121,0.625c-10.789,15.956-24.711,29.109-41.379,39.095
	c-13.328,7.986-28.43,13.973-44.888,17.796C95.501,178.201,80.434,178.98,71.242,178.98z"/>
<path fill="#0078C0" d="M68.453,152.466c-9.508,0-18.733-1.729-27.469-5.155c-16.592-6.508-25.792-17.043-25.884-17.148
	c-0.162-0.188-0.141-0.473,0.048-0.635s0.472-0.141,0.635,0.047c0.089,0.104,9.172,10.493,25.571,16.914
	c15.124,5.922,39.756,9.583,71.211-6.607c0.221-0.112,0.491-0.026,0.605,0.195c0.113,0.221,0.027,0.492-0.194,0.605
	c-14.022,7.218-27.892,11.159-41.223,11.716C70.65,152.444,69.55,152.466,68.453,152.466z"/>
<path fill="#0078C0" d="M175.662,70.959c-0.115,0-0.23-0.043-0.317-0.131c-0.122-0.122-12.355-12.223-32.763-22.702
	c-18.818-9.664-48.638-19.886-83.837-13.71c-0.242,0.042-0.479-0.121-0.521-0.365c-0.042-0.246,0.121-0.479,0.366-0.521
	c15.657-2.748,31.573-2.529,47.305,0.647c12.581,2.542,25.073,6.97,37.127,13.164c20.523,10.544,32.837,22.729,32.959,22.851
	c0.176,0.176,0.176,0.461,0,0.638C175.893,70.916,175.778,70.959,175.662,70.959z"/>
<path fill="#0078C0" d="M122.031,116.922c-0.047,0-0.095-0.008-0.142-0.022c-0.073-0.025-7.351-2.484-16.75-8.259
	c-8.621-5.296-20.847-14.545-30.26-28.578c-1.615,0.35-9.724,2.242-18.84,6.901c-9.335,4.772-21.674,13.508-27.436,28.029
	c-0.092,0.23-0.355,0.344-0.585,0.252c-0.23-0.091-0.344-0.354-0.252-0.584C33.637,99.87,46.171,90.994,55.653,86.15
	c10.256-5.238,19.257-7.015,19.346-7.031c0.178-0.037,0.36,0.041,0.461,0.191c9.346,14.04,21.555,23.282,30.151,28.563
	c9.313,5.722,16.491,8.147,16.563,8.172c0.236,0.079,0.363,0.333,0.284,0.569C122.396,116.804,122.221,116.922,122.031,116.922z"/>
<path fill="#0078C0" d="M75.098,79.376c-0.051,0-0.103-0.011-0.151-0.032c-0.212-0.093-0.315-0.359-0.232-0.595
	c6.566-18.518,16.844-29.355,24.309-35.187c8.1-6.325,14.751-8.296,14.816-8.315c0.218-0.065,0.444,0.083,0.503,0.328
	c0.058,0.245-0.075,0.495-0.295,0.559c-0.064,0.019-6.601,1.961-14.583,8.204c-7.363,5.758-17.5,16.461-23.983,34.748
	C75.416,79.266,75.261,79.376,75.098,79.376z"/>
<path fill="#0078C0" d="M74.69,79.686c-0.078-0.059-0.139-0.143-0.168-0.244c-0.078-0.275-8.136-27.723-28.388-40.468
	c-0.223-0.14-0.284-0.445-0.135-0.68c0.15-0.235,0.454-0.31,0.679-0.169c20.558,12.944,28.705,40.721,28.785,41
	c0.074,0.259-0.076,0.54-0.336,0.628C74.971,79.805,74.81,79.775,74.69,79.686z"/>
<g>
	<path fill="#0078C0" d="M142.286,231.001l-0.198-0.944c0.041-0.01,4.14-1.049,4.14-10.522c0-14.218,4.567-27.116,13.576-38.339
		l0.754,0.604c-8.867,11.047-13.364,23.742-13.364,37.734C147.193,229.879,142.486,230.96,142.286,231.001z"/>
	<path fill="#0078C0" d="M73.284,231.001c-0.2-0.041-4.908-1.122-4.908-11.467c0-13.992-4.495-26.688-13.363-37.734l0.753-0.604
		c9.009,11.223,13.576,24.121,13.576,38.339c0,9.474,4.099,10.513,4.141,10.522L73.284,231.001z"/>
</g>
<radialGradient id="SVGID_1_" cx="3183.5332" cy="4262.8848" r="213.8684" gradientTransform="matrix(-0.4618 0.141 -0.141 -0.4618 2066.8364 1626.1208)" gradientUnits="userSpaceOnUse">
	<stop  offset="0" style="stop-color:#CCCCCC"/>
	<stop  offset="1" style="stop-color:#FFFFFF"/>
</radialGradient>
<circle fill="url(#SVGID_1_)" cx="35.895" cy="117.48" r="33.528"/>
<circle fill="#0078C0" cx="35.895" cy="117.48" r="32.079"/>
<circle fill="none" cx="35.895" cy="117.48" r="28.838"/>
<radialGradient id="SVGID_2_" cx="2868.5117" cy="4166.46" r="146.1306" gradientTransform="matrix(-0.4618 0.141 -0.141 -0.4618 2066.8364 1626.1208)" gradientUnits="userSpaceOnUse">
	<stop  offset="0" style="stop-color:#CCCCCC"/>
	<stop  offset="1" style="stop-color:#FFFFFF"/>
</radialGradient>
<circle fill="url(#SVGID_2_)" cx="182.195" cy="114.032" r="22.908"/>
<circle fill="#0078C0" cx="182.195" cy="114.031" r="21.918"/>
<circle fill="none" cx="182.196" cy="114.032" r="19.704"/>
<radialGradient id="SVGID_3_" cx="2970.2109" cy="4059.7813" r="149.2091" gradientTransform="matrix(-0.4618 0.141 -0.141 -0.4618 2066.8364 1626.1208)" gradientUnits="userSpaceOnUse">
	<stop  offset="0" style="stop-color:#CCCCCC"/>
	<stop  offset="1" style="stop-color:#FFFFFF"/>
</radialGradient>
<circle fill="url(#SVGID_3_)" cx="150.848" cy="177.8" r="23.391"/>
<circle fill="#0078C0" cx="150.848" cy="177.8" r="22.645"/>
<circle fill="none" cx="150.848" cy="177.8" r="20.118"/>
<radialGradient id="SVGID_4_" cx="3081.5586" cy="4391.3936" r="149.2001" gradientTransform="matrix(-0.4618 0.141 -0.141 -0.4618 2066.8364 1626.1208)" gradientUnits="userSpaceOnUse">
	<stop  offset="0" style="stop-color:#CCCCCC"/>
	<stop  offset="1" style="stop-color:#FFFFFF"/>
</radialGradient>
<circle fill="url(#SVGID_4_)" cx="52.669" cy="40.349" r="23.391"/>
<circle fill="#0078C0" cx="52.668" cy="40.349" r="22.644"/>
<circle fill="none" cx="52.668" cy="40.349" r="20.119"/>
<radialGradient id="SVGID_5_" cx="3148.8594" cy="4121.2041" r="92.7536" gradientTransform="matrix(-0.4618 0.141 -0.141 -0.4618 2066.8364 1626.1208)" gradientUnits="userSpaceOnUse">
	<stop  offset="0" style="stop-color:#CCCCCC"/>
	<stop  offset="1" style="stop-color:#FFFFFF"/>
</radialGradient>
<circle fill="url(#SVGID_5_)" cx="49.029" cy="171.649" r="14.541"/>
<circle fill="#0078C0" cx="49.029" cy="171.649" r="13.913"/>
<radialGradient id="SVGID_6_" cx="2948.1416" cy="4376.0391" r="154.7027" gradientTransform="matrix(-0.4618 0.141 -0.141 -0.4618 2066.8364 1626.1208)" gradientUnits="userSpaceOnUse">
	<stop  offset="0" style="stop-color:#CCCCCC"/>
	<stop  offset="1" style="stop-color:#FFFFFF"/>
</radialGradient>
<circle fill="url(#SVGID_6_)" cx="117.486" cy="28.918" r="24.251"/>
<circle fill="#0078C0" cx="117.486" cy="28.918" r="23.204"/>
<radialGradient id="SVGID_7_" cx="3034.8086" cy="4212.4561" r="243.6429" gradientTransform="matrix(-0.4618 0.141 -0.141 -0.4618 2066.8364 1626.1208)" gradientUnits="userSpaceOnUse">
	<stop  offset="0" style="stop-color:#CCCCCC"/>
	<stop  offset="1" style="stop-color:#FFFFFF"/>
</radialGradient>
<circle fill="url(#SVGID_7_)" cx="117.308" cy="121.369" r="38.195"/>
<circle fill="#0078C0" cx="117.309" cy="121.368" r="36.543"/>
<circle fill="none" cx="117.309" cy="121.369" r="32.851"/>
<radialGradient id="SVGID_8_" cx="2853.8047" cy="4283.2676" r="135.8693" gradientTransform="matrix(-0.4618 0.141 -0.141 -0.4618 2066.8364 1626.1208)" gradientUnits="userSpaceOnUse">
	<stop  offset="0" style="stop-color:#CCCCCC"/>
	<stop  offset="1" style="stop-color:#FFFFFF"/>
</radialGradient>
<circle fill="url(#SVGID_8_)" cx="170.583" cy="57.472" r="21.3"/>
<circle fill="#0078C0" cx="170.583" cy="57.471" r="20.378"/>
<circle fill="none" cx="170.583" cy="57.472" r="18.32"/>
<path fill="#FFFFFF" d="M99.881,230.646c-1.974-19.172-0.581-30.712-0.567-30.827l1.128,0.141c-0.014,0.113-1.39,11.541,0.57,30.57
	L99.881,230.646z"/>
<g>
	<linearGradient id="SVGID_9_" gradientUnits="userSpaceOnUse" x1="72.1768" y1="267.251" x2="143.3936" y2="267.251">
		<stop  offset="0" style="stop-color:#FFFFFF"/>
		<stop  offset="1" style="stop-color:#0078C0"/>
	</linearGradient>
	<path fill="url(#SVGID_9_)" d="M107.785,230.365l-35.608-0.522v12.671c0,0,0.233,1.566,2.834,2.966v35.176
		c0,0,1.699,6.134,8.768,12.003c7.07,5.867,7.87,12.002,17.472,12.002h5.735h1.6h5.734c9.603,0,10.402-6.135,17.472-12.002
		c7.068-5.869,8.768-12.003,8.768-12.003v-35.176c2.602-1.399,2.835-2.966,2.835-2.966v-12.671L107.785,230.365z"/>
	<linearGradient id="SVGID_10_" gradientUnits="userSpaceOnUse" x1="72.5645" y1="249.9814" x2="142.4492" y2="249.9814">
		<stop  offset="0" style="stop-color:#FFFFFF"/>
		<stop  offset="1" style="stop-color:#0078C0"/>
	</linearGradient>
	<path fill="url(#SVGID_10_)" d="M142.449,249.98c0,2.285-1.851,4.135-4.136,4.135H76.698c-2.283,0-4.134-1.85-4.134-4.135l0,0
		c0-2.282,1.851-4.133,4.134-4.133h61.615C140.599,245.848,142.449,247.698,142.449,249.98L142.449,249.98z"/>
	<linearGradient id="SVGID_11_" gradientUnits="userSpaceOnUse" x1="72.5645" y1="258.9834" x2="142.4492" y2="258.9834">
		<stop  offset="0" style="stop-color:#FFFFFF"/>
		<stop  offset="1" style="stop-color:#0078C0"/>
	</linearGradient>
	<path fill="url(#SVGID_11_)" d="M142.449,258.982c0,2.285-1.851,4.135-4.136,4.135H76.698c-2.283,0-4.134-1.85-4.134-4.135l0,0
		c0-2.282,1.851-4.134,4.134-4.134h61.615C140.599,254.849,142.449,256.7,142.449,258.982L142.449,258.982z"/>
	<linearGradient id="SVGID_12_" gradientUnits="userSpaceOnUse" x1="72.5645" y1="267.9854" x2="142.4492" y2="267.9854">
		<stop  offset="0" style="stop-color:#FFFFFF"/>
		<stop  offset="1" style="stop-color:#0078C0"/>
	</linearGradient>
	<path fill="url(#SVGID_12_)" d="M142.449,267.985c0,2.284-1.851,4.135-4.136,4.135H76.698c-2.283,0-4.134-1.851-4.134-4.135l0,0
		c0-2.283,1.851-4.134,4.134-4.134h61.615C140.599,263.852,142.449,265.702,142.449,267.985L142.449,267.985z"/>
	<linearGradient id="SVGID_13_" gradientUnits="userSpaceOnUse" x1="72.5645" y1="276.9873" x2="142.4492" y2="276.9873">
		<stop  offset="0" style="stop-color:#FFFFFF"/>
		<stop  offset="1" style="stop-color:#0078C0"/>
	</linearGradient>
	<path fill="url(#SVGID_13_)" d="M142.449,276.987c0,2.284-1.851,4.135-4.136,4.135H76.698c-2.283,0-4.134-1.851-4.134-4.135l0,0
		c0-2.282,1.851-4.134,4.134-4.134h61.615C140.599,272.854,142.449,274.705,142.449,276.987L142.449,276.987z"/>
	<g>
		<defs>
			<filter id="Adobe_OpacityMaskFilter" filterUnits="userSpaceOnUse" x="72.564" y="245.979" width="66.55" height="7.869">
				<feFlood  style="flood-color:white;flood-opacity:1" result="back"/>
				<feBlend  in="SourceGraphic" in2="back" mode="normal"/>
			</filter>
		</defs>
		<mask maskUnits="userSpaceOnUse" x="72.564" y="245.979" width="66.55" height="7.869" id="SVGID_14_">
			<g filter="url(#Adobe_OpacityMaskFilter)">
				<defs>
					<filter id="Adobe_OpacityMaskFilter_1_" filterUnits="userSpaceOnUse" x="72.564" y="245.979" width="66.55" height="7.869">
						<feFlood  style="flood-color:white;flood-opacity:1" result="back"/>
						<feBlend  in="SourceGraphic" in2="back" mode="normal"/>
					</filter>
				</defs>
				<mask maskUnits="userSpaceOnUse" x="72.564" y="245.979" width="66.55" height="7.869" id="SVGID_14_">
					<g filter="url(#Adobe_OpacityMaskFilter_1_)">
					</g>
				</mask>
				<linearGradient id="SVGID_15_" gradientUnits="userSpaceOnUse" x1="72.5645" y1="249.9141" x2="139.1143" y2="249.9141">
					<stop  offset="0" style="stop-color:#FFFFFF"/>
					<stop  offset="1" style="stop-color:#000000"/>
				</linearGradient>
				<path mask="url(#SVGID_14_)" fill="url(#SVGID_15_)" d="M139.114,245.979H75.708c-1.803,0.446-3.144,2.063-3.144,4.001
					c0,1.76,1.103,3.253,2.651,3.849l0.684,0.02L139.114,245.979z"/>
			</g>
		</mask>
		<linearGradient id="SVGID_16_" gradientUnits="userSpaceOnUse" x1="72.5645" y1="249.9141" x2="139.1143" y2="249.9141">
			<stop  offset="0" style="stop-color:#FFFFFF"/>
			<stop  offset="1" style="stop-color:#0078C0"/>
		</linearGradient>
		<path fill="url(#SVGID_16_)" d="M139.114,245.979H75.708c-1.803,0.446-3.144,2.063-3.144,4.001c0,1.76,1.103,3.253,2.651,3.849
			l0.684,0.02L139.114,245.979z"/>
	</g>
	<g>
		<defs>
			<filter id="Adobe_OpacityMaskFilter_2_" filterUnits="userSpaceOnUse" x="72.564" y="254.849" width="66.55" height="7.87">
				<feFlood  style="flood-color:white;flood-opacity:1" result="back"/>
				<feBlend  in="SourceGraphic" in2="back" mode="normal"/>
			</filter>
		</defs>
		<mask maskUnits="userSpaceOnUse" x="72.564" y="254.849" width="66.55" height="7.87" id="SVGID_17_">
			<g filter="url(#Adobe_OpacityMaskFilter_2_)">
				<defs>
					<filter id="Adobe_OpacityMaskFilter_3_" filterUnits="userSpaceOnUse" x="72.564" y="254.849" width="66.55" height="7.87">
						<feFlood  style="flood-color:white;flood-opacity:1" result="back"/>
						<feBlend  in="SourceGraphic" in2="back" mode="normal"/>
					</filter>
				</defs>
				<mask maskUnits="userSpaceOnUse" x="72.564" y="254.849" width="66.55" height="7.87" id="SVGID_17_">
					<g filter="url(#Adobe_OpacityMaskFilter_3_)">
					</g>
				</mask>
				<linearGradient id="SVGID_18_" gradientUnits="userSpaceOnUse" x1="72.5645" y1="258.7842" x2="139.1143" y2="258.7842">
					<stop  offset="0" style="stop-color:#FFFFFF"/>
					<stop  offset="1" style="stop-color:#000000"/>
				</linearGradient>
				<path mask="url(#SVGID_17_)" fill="url(#SVGID_18_)" d="M139.114,254.849H75.708c-1.803,0.446-3.144,2.063-3.144,4.002
					c0,1.758,1.103,3.252,2.651,3.849l0.684,0.02L139.114,254.849z"/>
			</g>
		</mask>
		<linearGradient id="SVGID_19_" gradientUnits="userSpaceOnUse" x1="72.5645" y1="258.7842" x2="139.1143" y2="258.7842">
			<stop  offset="0" style="stop-color:#FFFFFF"/>
			<stop  offset="1" style="stop-color:#0078C0"/>
		</linearGradient>
		<path fill="url(#SVGID_19_)" d="M139.114,254.849H75.708c-1.803,0.446-3.144,2.063-3.144,4.002c0,1.758,1.103,3.252,2.651,3.849
			l0.684,0.02L139.114,254.849z"/>
	</g>
	<g>
		<defs>
			<filter id="Adobe_OpacityMaskFilter_4_" filterUnits="userSpaceOnUse" x="72.564" y="263.852" width="66.55" height="7.868">
				<feFlood  style="flood-color:white;flood-opacity:1" result="back"/>
				<feBlend  in="SourceGraphic" in2="back" mode="normal"/>
			</filter>
		</defs>
		<mask maskUnits="userSpaceOnUse" x="72.564" y="263.852" width="66.55" height="7.868" id="SVGID_20_">
			<g filter="url(#Adobe_OpacityMaskFilter_4_)">
				<defs>
					<filter id="Adobe_OpacityMaskFilter_5_" filterUnits="userSpaceOnUse" x="72.564" y="263.852" width="66.55" height="7.868">
						<feFlood  style="flood-color:white;flood-opacity:1" result="back"/>
						<feBlend  in="SourceGraphic" in2="back" mode="normal"/>
					</filter>
				</defs>
				<mask maskUnits="userSpaceOnUse" x="72.564" y="263.852" width="66.55" height="7.868" id="SVGID_20_">
					<g filter="url(#Adobe_OpacityMaskFilter_5_)">
					</g>
				</mask>
				<linearGradient id="SVGID_21_" gradientUnits="userSpaceOnUse" x1="72.5645" y1="267.7861" x2="139.1143" y2="267.7861">
					<stop  offset="0" style="stop-color:#FFFFFF"/>
					<stop  offset="1" style="stop-color:#000000"/>
				</linearGradient>
				<path mask="url(#SVGID_20_)" fill="url(#SVGID_21_)" d="M139.114,263.852H75.708c-1.803,0.444-3.144,2.062-3.144,4.001
					c0,1.76,1.103,3.251,2.651,3.85l0.684,0.018L139.114,263.852z"/>
			</g>
		</mask>
		<linearGradient id="SVGID_22_" gradientUnits="userSpaceOnUse" x1="72.5645" y1="267.7861" x2="139.1143" y2="267.7861">
			<stop  offset="0" style="stop-color:#FFFFFF"/>
			<stop  offset="1" style="stop-color:#0078C0"/>
		</linearGradient>
		<path fill="url(#SVGID_22_)" d="M139.114,263.852H75.708c-1.803,0.444-3.144,2.062-3.144,4.001c0,1.76,1.103,3.251,2.651,3.85
			l0.684,0.018L139.114,263.852z"/>
	</g>
	<g>
		<defs>
			<filter id="Adobe_OpacityMaskFilter_6_" filterUnits="userSpaceOnUse" x="73.23" y="272.854" width="66.55" height="7.868">
				<feFlood  style="flood-color:white;flood-opacity:1" result="back"/>
				<feBlend  in="SourceGraphic" in2="back" mode="normal"/>
			</filter>
		</defs>
		<mask maskUnits="userSpaceOnUse" x="73.23" y="272.854" width="66.55" height="7.868" id="SVGID_23_">
			<g filter="url(#Adobe_OpacityMaskFilter_6_)">
				<defs>
					<filter id="Adobe_OpacityMaskFilter_7_" filterUnits="userSpaceOnUse" x="73.23" y="272.854" width="66.55" height="7.868">
						<feFlood  style="flood-color:white;flood-opacity:1" result="back"/>
						<feBlend  in="SourceGraphic" in2="back" mode="normal"/>
					</filter>
				</defs>
				<mask maskUnits="userSpaceOnUse" x="73.23" y="272.854" width="66.55" height="7.868" id="SVGID_23_">
					<g filter="url(#Adobe_OpacityMaskFilter_7_)">
					</g>
				</mask>
				<linearGradient id="SVGID_24_" gradientUnits="userSpaceOnUse" x1="73.2305" y1="276.7881" x2="139.7803" y2="276.7881">
					<stop  offset="0" style="stop-color:#FFFFFF"/>
					<stop  offset="1" style="stop-color:#000000"/>
				</linearGradient>
				<path mask="url(#SVGID_23_)" fill="url(#SVGID_24_)" d="M139.78,272.854H76.374c-1.802,0.445-3.144,2.062-3.144,4.001
					c0,1.758,1.103,3.252,2.651,3.848l0.682,0.02L139.78,272.854z"/>
			</g>
		</mask>
		<linearGradient id="SVGID_25_" gradientUnits="userSpaceOnUse" x1="73.2305" y1="276.7881" x2="139.7803" y2="276.7881">
			<stop  offset="0" style="stop-color:#FFFFFF"/>
			<stop  offset="1" style="stop-color:#0078C0"/>
		</linearGradient>
		<path fill="url(#SVGID_25_)" d="M139.78,272.854H76.374c-1.802,0.445-3.144,2.062-3.144,4.001c0,1.758,1.103,3.252,2.651,3.848
			l0.682,0.02L139.78,272.854z"/>
	</g>
</g>
</svg>
