<svg version="1.1" id="Layer_1" xmlns="http://www.w3.org/2000/svg" xmlns:xlink="http://www.w3.org/1999/xlink" x="0px" y="0px" width="104px" height="104px" viewBox="0 0 104 104" enable-background="new 0 0 104 104" xml:space="preserve">

    <circle fill="none" stroke="#63A543" stroke-width="3" stroke-miterlimit="10" cx="52.298" cy="52.239" r="50"></circle>
    <circle fill="none" stroke="#FBF0D9" stroke-width="0.25" stroke-miterlimit="10" cx="52.298" cy="52.239" r="50"></circle>
    <g>
        <path fill="#63A543" d="M54.794,83.568c0.575,0,1.045-0.47,1.045-1.044V21.937c0-0.574-0.47-1.044-1.045-1.044 h-4.178c-0.575,0-1.045,0.47-1.045,1.044v60.588c0,0.574,0.47,1.044,1.045,1.044H54.794z"></path>
    </g>
    <g>
        <path fill="none" d="M83.792,35.859c0.425,0.387,0.425,1.018,0,1.404l-6.512,5.908c-0.425,0.387-1.243,0.701-1.817,0.701 H29.201c-0.574,0-1.045-0.47-1.045-1.044V30.294c0-0.575,0.471-1.045,1.045-1.045h46.262c0.574,0,1.393,0.315,1.818,0.702 L83.792,35.859z"></path>

        <path fill="#63A543" stroke="#FBF0D9" stroke-width="1" stroke-miterlimit="10" d="M83.792,35.859c0.425,0.387,0.425,1.018,0,1.404 l-6.512,5.908c-0.425,0.387-1.243,0.701-1.817,0.701H29.201c-0.574,0-1.045-0.47-1.045-1.044V30.294 c0-0.575,0.471-1.045,1.045-1.045h46.262c0.574,0,1.393,0.315,1.818,0.702L83.792,35.859z"></path>                   
    </g>
    <g>
        <path fill="none" d="M22.663,58.155c-0.425-0.387-0.425-1.018,0-1.403l6.511-5.909c0.426-0.386,1.243-0.701,1.818-0.701 h46.261c0.575,0,1.045,0.47,1.045,1.044v12.535c0,0.575-0.47,1.045-1.045,1.045H30.992c-0.575,0-1.393-0.315-1.819-0.702 L22.663,58.155z"></path>

        <path fill="#63A543" stroke="#FBF0D9" stroke-width="1" stroke-miterlimit="10" d="M22.663,58.155c-0.425-0.387-0.425-1.018,0-1.403 l6.511-5.909c0.426-0.386,1.243-0.701,1.818-0.701h46.261c0.575,0,1.045,0.47,1.045,1.044v12.535 c0,0.575-0.47,1.045-1.045,1.045H30.992c-0.575,0-1.393-0.315-1.819-0.702L22.663,58.155z">
        </path>
    </g>
</svg>

